<svg width="20" height="19" viewBox="0 0 20 19" fill="none" xmlns="http://www.w3.org/2000/svg">
<path d="M15.532 10.7257C15.1222 10.6956 14.7624 11.0158 14.7324 11.426C14.5126 14.6978 11.774 17.2592 8.49581 17.2592C5.04768 17.2592 2.24919 14.4577 2.24919 11.0058C2.24919 7.55395 4.80781 4.98256 8.07604 4.76244C8.48582 4.73242 8.80565 4.38223 8.77566 3.96201C8.74568 3.55178 8.39587 3.24162 7.97609 3.26163C3.91829 3.53177 0.75 6.92361 0.75 10.9958C0.75 15.2681 4.22812 18.75 8.49581 18.75C12.7635 18.75 15.9618 15.5683 16.2216 11.5161C16.2516 11.1059 15.9318 10.7457 15.522 10.7157L15.532 10.7257Z" fill="#022A9A"/>
<path d="M11.5042 0.25C11.0944 0.25 10.7546 0.590184 10.7546 1.00041V8.00419C10.7546 8.41441 11.0944 8.7546 11.5042 8.7546H18.5004C18.9102 8.7546 19.25 8.41441 19.25 8.00419C19.25 3.73188 15.7719 0.25 11.5042 0.25ZM12.2538 7.25379V1.79083C15.1022 2.13102 17.361 4.40224 17.7108 7.25379H12.2538Z" fill="#022A9A"/>
</svg>
