<svg width="24" height="24" viewBox="0 0 24 24" fill="none" xmlns="http://www.w3.org/2000/svg">
<path d="M18 3.25H17.75V3C17.75 2.59 17.41 2.25 17 2.25C16.59 2.25 16.25 2.59 16.25 3V3.25H12.75V3C12.75 2.59 12.41 2.25 12 2.25C11.59 2.25 11.25 2.59 11.25 3V3.25H7.75V3C7.75 2.59 7.41 2.25 7 2.25C6.59 2.25 6.25 2.59 6.25 3V3.25H6C3.93 3.25 2.25 4.93 2.25 7V18C2.25 20.07 3.93 21.75 6 21.75H18C20.07 21.75 21.75 20.07 21.75 18V7C21.75 4.93 20.07 3.25 18 3.25ZM6 4.75H6.25V6C6.25 6.41 6.59 6.75 7 6.75C7.41 6.75 7.75 6.41 7.75 6V4.75H11.25V6C11.25 6.41 11.59 6.75 12 6.75C12.41 6.75 12.75 6.41 12.75 6V4.75H16.25V6C16.25 6.41 16.59 6.75 17 6.75C17.41 6.75 17.75 6.41 17.75 6V4.75H18C19.24 4.75 20.25 5.76 20.25 7V8.25H3.75V7C3.75 5.76 4.76 4.75 6 4.75ZM18 20.25H6C4.76 20.25 3.75 19.24 3.75 18V9.75H20.25V18C20.25 19.24 19.24 20.25 18 20.25Z" fill="#606882"/>
<path d="M12 13.74C12.4142 13.74 12.75 13.4042 12.75 12.99C12.75 12.5758 12.4142 12.24 12 12.24C11.5858 12.24 11.25 12.5758 11.25 12.99C11.25 13.4042 11.5858 13.74 12 13.74Z" fill="#606882"/>
<path d="M17 13.74C17.4142 13.74 17.75 13.4042 17.75 12.99C17.75 12.5758 17.4142 12.24 17 12.24C16.5858 12.24 16.25 12.5758 16.25 12.99C16.25 13.4042 16.5858 13.74 17 13.74Z" fill="#606882"/>
<path d="M12 17.75C12.4142 17.75 12.75 17.4142 12.75 17C12.75 16.5858 12.4142 16.25 12 16.25C11.5858 16.25 11.25 16.5858 11.25 17C11.25 17.4142 11.5858 17.75 12 17.75Z" fill="#606882"/>
<path d="M17 17.75C17.4142 17.75 17.75 17.4142 17.75 17C17.75 16.5858 17.4142 16.25 17 16.25C16.5858 16.25 16.25 16.5858 16.25 17C16.25 17.4142 16.5858 17.75 17 17.75Z" fill="#606882"/>
<path d="M7 13.74C7.41421 13.74 7.75 13.4042 7.75 12.99C7.75 12.5758 7.41421 12.24 7 12.24C6.58579 12.24 6.25 12.5758 6.25 12.99C6.25 13.4042 6.58579 13.74 7 13.74Z" fill="#606882"/>
<path d="M7 17.75C7.41421 17.75 7.75 17.4142 7.75 17C7.75 16.5858 7.41421 16.25 7 16.25C6.58579 16.25 6.25 16.5858 6.25 17C6.25 17.4142 6.58579 17.75 7 17.75Z" fill="#606882"/>
</svg>
