<svg width="24" height="24" viewBox="0 0 24 24" fill="none" xmlns="http://www.w3.org/2000/svg">
<path fill-rule="evenodd" clip-rule="evenodd" d="M2.25 7C2.25 7.41 2.59 7.75 3 7.75V7.74C3.41 7.74 3.75 7.4 3.75 6.99C3.75 6.85 3.86 6.74 4 6.74H12.01C12.26 6.74 12.49 6.62 12.63 6.41L14.33 3.86C14.38 3.79 14.46 3.75 14.54 3.75H20.25V4C20.25 4.41 20.59 4.75 21 4.75C21.41 4.75 21.75 4.41 21.75 4V3C21.75 2.59 21.41 2.25 21 2.25H14.54C13.95 2.25 13.41 2.54 13.08 3.03L11.6 5.25H4C3.04 5.25 2.25 6.04 2.25 7ZM20 21.75H4C3.04 21.75 2.25 20.96 2.25 20V11C2.25 10.04 3.04 9.25 4 9.25H13.6L15.08 7.03C15.41 6.54 15.95 6.25 16.54 6.25H20C20.96 6.25 21.75 7.04 21.75 8V20C21.75 20.96 20.96 21.75 20 21.75ZM4 10.75C3.86 10.75 3.75 10.86 3.75 11V20C3.75 20.14 3.86 20.25 4 20.25H20C20.14 20.25 20.25 20.14 20.25 20V8C20.25 7.86 20.14 7.75 20 7.75H16.54C16.46 7.75 16.38 7.79 16.33 7.86L14.63 10.41C14.49 10.62 14.26 10.74 14.01 10.74H4V10.75ZM10 17.75H7C6.59 17.75 6.25 17.41 6.25 17C6.25 16.59 6.59 16.25 7 16.25H10C10.41 16.25 10.75 16.59 10.75 17C10.75 17.41 10.41 17.75 10 17.75Z" fill="#606882"/>
</svg>
