<svg width="10" height="10" viewBox="0 0 10 10" fill="none" xmlns="http://www.w3.org/2000/svg">
<path d="M6.06307 4.99994L9.03481 2.02994C9.32498 1.73994 9.32498 1.25994 9.03481 0.969941C8.74464 0.679941 8.26436 0.679941 7.97419 0.969941L5.00244 3.93994L2.03069 0.969941C1.74052 0.679941 1.26024 0.679941 0.970069 0.969941C0.679899 1.25994 0.679899 1.73994 0.970069 2.02994L3.94182 4.99994L0.970069 7.96994C0.679899 8.25994 0.679899 8.73994 0.970069 9.02994C1.12016 9.17994 1.31027 9.24994 1.50038 9.24994C1.69049 9.24994 1.88061 9.17994 2.03069 9.02994L5.00244 6.05994L7.97419 9.02994C8.12428 9.17994 8.31439 9.24994 8.5045 9.24994C8.69461 9.24994 8.88472 9.17994 9.03481 9.02994C9.32498 8.73994 9.32498 8.25994 9.03481 7.96994L6.06307 4.99994Z" fill="#002066"/>
</svg>
