<svg width="24" height="24" viewBox="0 0 24 24" fill="none" xmlns="http://www.w3.org/2000/svg">
<path d="M12.0103 20.6C11.6495 20.6 11.1084 20.4501 11.0683 20.0403V18.991L10.7576 18.921C9.96599 18.7511 9.25451 18.3513 8.62319 17.7417C7.99187 17.132 7.56097 16.2925 7.33049 15.2431C7.26035 14.9133 7.31045 14.6235 7.49083 14.4036C7.6712 14.1738 7.98185 14.0338 8.2925 14.0338C8.64323 14.0338 8.90378 14.2037 9.03405 14.5036C9.26453 15.453 9.65535 16.1826 10.2065 16.6523C10.7677 17.122 11.4391 17.3619 12.2107 17.3619C12.9823 17.3619 13.6537 17.192 14.1046 16.8722C14.5957 16.5124 14.8462 15.9627 14.8462 15.2331C14.8462 14.5935 14.5756 14.0538 14.0345 13.6541C13.5635 13.2943 12.8119 12.9445 11.7297 12.5747C10.3167 12.085 9.29459 11.5253 8.70336 10.9157C8.14219 10.336 7.8616 9.56644 7.8616 8.63698C7.8616 7.88741 8.1021 7.17783 8.58311 6.52821C9.05409 5.88858 9.81568 5.43884 10.8278 5.19898L11.1384 5.12902V3.91972C11.1485 3.53994 11.6796 3.40002 12.0303 3.40002C12.4812 3.40002 12.9522 3.59991 12.9923 3.96969V5.169L13.343 5.21897C14.0345 5.30891 14.6458 5.59875 15.1568 6.08846C15.6779 6.57818 16.0687 7.23779 16.3193 8.05732C16.4094 8.34715 16.3794 8.597 16.2291 8.79689C16.0387 9.05674 15.6479 9.23663 15.2771 9.23663C15.1167 9.23663 14.7359 9.19665 14.6858 8.85685C14.4854 8.19724 14.1547 7.69753 13.6938 7.32774C13.2228 6.94796 12.6215 6.75807 11.9101 6.75807C11.2888 6.75807 10.7777 6.89799 10.3769 7.18782C9.94595 7.49764 9.71547 7.94738 9.71547 8.48707C9.71547 9.09671 9.98604 9.59642 10.5372 9.98619C11.0082 10.326 11.8499 10.6958 13.1126 11.1155C14.5656 11.6152 15.5376 12.2249 15.9986 12.9145C16.4696 13.6141 16.7 14.3936 16.7 15.2331C16.7 16.4324 16.3694 17.3119 15.708 17.8516C14.9965 18.4213 14.1748 18.8011 13.2629 18.971L12.9322 19.0309V20.0603C12.9121 20.4401 12.371 20.58 12.0203 20.58L12.0103 20.6Z" fill="#606882"/>
</svg>
