<svg width="20" height="18" viewBox="0 0 20 18" fill="none" xmlns="http://www.w3.org/2000/svg">
<path d="M9.47 12.53C9.54 12.6 9.62 12.65 9.71 12.69C9.8 12.73 9.9 12.75 10 12.75C10.1 12.75 10.2 12.73 10.29 12.69C10.38 12.65 10.46 12.6 10.53 12.53L14.53 8.53C14.82 8.24 14.82 7.76 14.53 7.47C14.24 7.18 13.76 7.18 13.47 7.47L10.75 10.19V1C10.75 0.59 10.41 0.25 10 0.25C9.59 0.25 9.25 0.59 9.25 1V10.19L6.53 7.47C6.24 7.18 5.76 7.18 5.47 7.47C5.18 7.76 5.18 8.24 5.47 8.53L9.47 12.53Z" fill="#022A9A"/>
<path d="M19 9.25C18.59 9.25 18.25 9.59 18.25 10V13C18.25 14.79 16.79 16.25 15 16.25H5C3.21 16.25 1.75 14.79 1.75 13V10C1.75 9.59 1.41 9.25 1 9.25C0.59 9.25 0.25 9.59 0.25 10V13C0.25 15.62 2.38 17.75 5 17.75H15C17.62 17.75 19.75 15.62 19.75 13V10C19.75 9.59 19.41 9.25 19 9.25Z" fill="#022A9A"/>
</svg>
