<svg width="18" height="16" viewBox="0 0 18 16" fill="none" xmlns="http://www.w3.org/2000/svg">
<path d="M1 2.75H3C3 2.75 3.09 2.73 3.14 2.72C3.43 3.47 4.15 4 5 4C5.85 4 6.57 3.47 6.86 2.72C6.91 2.72 6.95 2.75 7 2.75H17C17.41 2.75 17.75 2.41 17.75 2C17.75 1.59 17.41 1.25 17 1.25H7C7 1.25 6.91 1.27 6.86 1.28C6.57 0.53 5.85 0 5 0C4.15 0 3.43 0.53 3.14 1.28C3.09 1.28 3.05 1.25 3 1.25H1C0.59 1.25 0.25 1.59 0.25 2C0.25 2.41 0.59 2.75 1 2.75ZM5 1.5C5.28 1.5 5.5 1.72 5.5 2C5.5 2.28 5.28 2.5 5 2.5C4.72 2.5 4.5 2.28 4.5 2C4.5 1.72 4.72 1.5 5 1.5Z" fill="#022A9A"/>
<path d="M17 7.25H15C15 7.25 14.91 7.27 14.86 7.28C14.57 6.53 13.85 6 13 6C12.15 6 11.43 6.53 11.14 7.28C11.09 7.28 11.05 7.25 11 7.25H1C0.59 7.25 0.25 7.59 0.25 8C0.25 8.41 0.59 8.75 1 8.75H11C11 8.75 11.09 8.73 11.14 8.72C11.43 9.47 12.15 10 13 10C13.85 10 14.57 9.47 14.86 8.72C14.91 8.72 14.95 8.75 15 8.75H17C17.41 8.75 17.75 8.41 17.75 8C17.75 7.59 17.41 7.25 17 7.25ZM13 8.5C12.72 8.5 12.5 8.28 12.5 8C12.5 7.72 12.72 7.5 13 7.5C13.28 7.5 13.5 7.72 13.5 8C13.5 8.28 13.28 8.5 13 8.5Z" fill="#022A9A"/>
<path d="M17 13.25H7C7 13.25 6.91 13.27 6.86 13.28C6.57 12.53 5.85 12 5 12C4.15 12 3.43 12.53 3.14 13.28C3.09 13.28 3.05 13.25 3 13.25H1C0.59 13.25 0.25 13.59 0.25 14C0.25 14.41 0.59 14.75 1 14.75H3C3 14.75 3.09 14.73 3.14 14.72C3.43 15.47 4.15 16 5 16C5.85 16 6.57 15.47 6.86 14.72C6.91 14.72 6.95 14.75 7 14.75H17C17.41 14.75 17.75 14.41 17.75 14C17.75 13.59 17.41 13.25 17 13.25ZM5 14.5C4.72 14.5 4.5 14.28 4.5 14C4.5 13.72 4.72 13.5 5 13.5C5.28 13.5 5.5 13.72 5.5 14C5.5 14.28 5.28 14.5 5 14.5Z" fill="#022A9A"/>
</svg>
