<svg width="24" height="24" viewBox="0 0 24 24" fill="none" xmlns="http://www.w3.org/2000/svg">
<path fill-rule="evenodd" clip-rule="evenodd" d="M18 3.25H17.75V3C17.75 2.59 17.41 2.25 17 2.25C16.59 2.25 16.25 2.59 16.25 3V3.25H12.75V3C12.75 2.59 12.41 2.25 12 2.25C11.59 2.25 11.25 2.59 11.25 3V3.25H7.75V3C7.75 2.59 7.41 2.25 7 2.25C6.59 2.25 6.25 2.59 6.25 3V3.25H6C3.93 3.25 2.25 4.93 2.25 7V18C2.25 20.07 3.93 21.75 6 21.75H9C9.41 21.75 9.75 21.41 9.75 21C9.75 20.59 9.41 20.25 9 20.25H6C4.76 20.25 3.75 19.24 3.75 18V9.75H9C9.41 9.75 9.75 9.41 9.75 9C9.75 8.59 9.41 8.25 9 8.25H3.75V7C3.75 5.76 4.76 4.75 6 4.75H6.25V6C6.25 6.41 6.59 6.75 7 6.75C7.41 6.75 7.75 6.41 7.75 6V4.75H11.25V6C11.25 6.41 11.59 6.75 12 6.75C12.41 6.75 12.75 6.41 12.75 6V4.75H16.25V6C16.25 6.41 16.59 6.75 17 6.75C17.41 6.75 17.75 6.41 17.75 6V4.75H18C19.24 4.75 20.25 5.76 20.25 7V9C20.25 9.41 20.59 9.75 21 9.75C21.41 9.75 21.75 9.41 21.75 9V7C21.75 4.93 20.07 3.25 18 3.25ZM15.4974 9.25C15.0886 9.25141 14.75 9.59085 14.75 10C14.75 10.41 15.09 10.75 15.5 10.75C18.12 10.75 20.25 12.88 20.25 15.5C20.25 18.12 18.12 20.25 15.5 20.25C12.88 20.25 10.97 18.3 10.78 15.85L11.46 16.53C11.61 16.68 11.8 16.75 11.99 16.75C12.18 16.75 12.37 16.68 12.52 16.53C12.81 16.24 12.81 15.76 12.52 15.47L10.52 13.47C10.23 13.18 9.74999 13.18 9.45999 13.47L7.45999 15.47C7.16999 15.76 7.16999 16.24 7.45999 16.53C7.74999 16.82 8.22999 16.82 8.51999 16.53L9.24999 15.8C9.40999 19.11 12.14 21.75 15.49 21.75C18.84 21.75 21.74 18.95 21.74 15.5C21.74 12.0525 18.944 9.25403 15.4974 9.25ZM15.4974 9.25L15.49 9.25H15.5L15.4974 9.25ZM14.94 17.11C15.12 17.26 15.33 17.34 15.59 17.34V17.33C15.86 17.33 16.07 17.28 16.21 17.18C16.35 17.09 16.41 16.93 16.41 16.72C16.41 16.54 16.33 16.4 16.18 16.28C16.01 16.15 15.72 16.02 15.31 15.88C14.69 15.67 14.24 15.42 13.97 15.14C13.69 14.86 13.55 14.48 13.55 14.03C13.55 13.67 13.67 13.33 13.9 13.02C14.12 12.73 14.45 12.52 14.89 12.4V12.1C14.9 11.78 15.22 11.63 15.51 11.63C15.8 11.63 16.12 11.77 16.16 12.1V12.39C16.46 12.45 16.73 12.58 16.96 12.8C17.2 13.04 17.39 13.35 17.5 13.72C17.58 13.97 17.51 14.14 17.43 14.25C17.3 14.43 17.07 14.54 16.83 14.54C16.56 14.54 16.37 14.4 16.34 14.18C16.28 13.98 16.17 13.82 16.02 13.7C15.87 13.58 15.68 13.52 15.45 13.52C15.25 13.52 15.09 13.57 14.97 13.65C14.86 13.73 14.81 13.83 14.81 13.97C14.81 14.13 14.89 14.26 15.04 14.37C15.21 14.49 15.54 14.64 16.03 14.8C16.68 15.03 17.12 15.31 17.34 15.64C17.56 15.97 17.67 16.33 17.67 16.73C17.67 17.3 17.5 17.73 17.17 18C16.87 18.25 16.52 18.42 16.13 18.5V18.72C16.11 19.03 15.79 19.18 15.5 19.18C15.21 19.18 14.89 19.04 14.86 18.71V18.47C14.52 18.38 14.21 18.21 13.94 17.94C13.65 17.65 13.44 17.27 13.34 16.79C13.3 16.58 13.34 16.38 13.46 16.23C13.59 16.07 13.78 15.98 13.99 15.98C14.23 15.98 14.43 16.11 14.53 16.34C14.62 16.7 14.76 16.96 14.94 17.11Z" fill="#606882"/>
</svg>
