<svg width="80" height="40" viewBox="0 0 80 40" fill="none" xmlns="http://www.w3.org/2000/svg">
<path d="M60.7581 14.2293V11.2699C62.6266 11.177 63.9033 9.83675 63.9974 8H66.9873C66.925 11.457 64.2151 14.1046 60.7581 14.2293Z" fill="#022A9A"/>
<path d="M43.7724 28.3817V31.6382H42.8076C40.637 31.6382 39.2796 30.7333 38.8577 29.0457C37.6214 30.8543 35.6623 32.0002 33.3095 32.0002C28.9684 32.0002 25.7412 28.5333 25.7412 23.95C25.7412 19.3667 28.9671 15.8999 33.3095 15.8999C35.5706 15.8999 37.471 16.9552 38.7061 18.644V16.2619H42.0824V26.9656C42.0824 27.84 42.5948 28.3829 43.4997 28.3829H43.7712L43.7724 28.3817ZM38.7073 23.95C38.7073 21.2365 36.6871 19.1564 33.9736 19.1564C31.26 19.1564 29.2105 21.2365 29.2105 23.95C29.2105 26.6636 31.2307 28.7437 33.9736 28.7437C36.7164 28.7437 38.7073 26.6636 38.7073 23.95Z" fill="#022A9A"/>
<path d="M46.5093 8H50.0972V31.638H46.5093V8Z" fill="#022A9A"/>
<path d="M70.5717 28.3817V31.6382H69.6069C67.4363 31.6382 66.0789 30.7333 65.657 29.0457C64.4207 30.8543 62.4617 32.0002 60.1089 32.0002C55.7677 32.0002 52.5405 28.5333 52.5405 23.95C52.5405 19.3667 55.7665 15.8999 60.1089 15.8999C62.3699 15.8999 64.2691 16.9552 65.5054 18.644V16.2619H68.8817V26.9656C68.8817 27.84 69.3941 28.3829 70.299 28.3829H70.5705L70.5717 28.3817ZM65.5066 23.95C65.5066 21.2365 63.4864 19.1564 60.7729 19.1564C58.0593 19.1564 56.0086 21.2365 56.0086 23.95C56.0086 26.6636 58.0288 28.7437 60.7729 28.7437C63.517 28.7437 65.5066 26.6636 65.5066 23.95Z" fill="#022A9A"/>
<path d="M16.3362 32.0002C12.0598 32.0002 9.42822 29.6828 9.42822 26.0998V16.3145H12.7801V25.0139C12.7801 27.692 14.1864 28.7791 16.3411 28.7791C18.6156 28.7791 20.1418 27.5734 20.1418 25.0139V16.3145H23.4936V26.1267C23.4936 30.0252 20.6334 32.0002 16.3374 32.0002H16.3362Z" fill="#022A9A"/>
</svg>
